<svg width="72" height="65" viewBox="0 0 72 65" fill="none" xmlns="http://www.w3.org/2000/svg">
<rect width="72" height="65" fill="black"/>
<path d="M44.0409 51V32M44.0409 32V13L35 20L57.1912 13C67.7115 18.6 61.5747 26.6667 57.1912 30L44.0409 32Z" stroke="#7F5AF0"/>
<path d="M28.4091 27C28.0966 26.0436 27.6847 25.1866 27.1733 24.429C26.6714 23.6619 26.0701 23.0085 25.3693 22.4688C24.678 21.929 23.892 21.517 23.0114 21.233C22.1307 20.9489 21.1648 20.8068 20.1136 20.8068C18.3902 20.8068 16.8229 21.2519 15.4119 22.142C14.0009 23.0322 12.8788 24.3438 12.0455 26.0767C11.2121 27.8097 10.7955 29.9356 10.7955 32.4545C10.7955 34.9735 11.2169 37.0994 12.0597 38.8324C12.9025 40.5653 14.0436 41.8769 15.483 42.767C16.9223 43.6572 18.5417 44.1023 20.3409 44.1023C22.0076 44.1023 23.4754 43.7472 24.7443 43.0369C26.0227 42.3172 27.017 41.304 27.7273 39.9972C28.447 38.6809 28.8068 37.1326 28.8068 35.3523L29.8864 35.5795H21.1364V32.4545H32.2159V35.5795C32.2159 37.9754 31.7045 40.0587 30.6818 41.8295C29.6686 43.6004 28.267 44.9735 26.4773 45.9489C24.697 46.9148 22.6515 47.3977 20.3409 47.3977C17.7652 47.3977 15.5019 46.7917 13.5511 45.5795C11.6098 44.3674 10.0947 42.6439 9.00568 40.4091C7.92614 38.1742 7.38636 35.5227 7.38636 32.4545C7.38636 30.1534 7.69413 28.0843 8.30966 26.2472C8.93466 24.4006 9.81534 22.8286 10.9517 21.5312C12.0881 20.2339 13.4328 19.2396 14.9858 18.5483C16.5388 17.857 18.2481 17.5114 20.1136 17.5114C21.6477 17.5114 23.0777 17.7434 24.4034 18.2074C25.7386 18.6619 26.9271 19.3106 27.9688 20.1534C29.0199 20.9867 29.8958 21.9858 30.5966 23.1506C31.2973 24.3059 31.7803 25.589 32.0455 27H28.4091Z" fill="white"/>
</svg>
