<svg xmlns="http://www.w3.org/2000/svg" xmlns:xlink="http://www.w3.org/1999/xlink" viewBox="0,0,256,256" width="24px" height="24px" fill-rule="nonzero"><g fill="#ffffff" fill-rule="nonzero" stroke="none" stroke-width="1" stroke-linecap="butt" stroke-linejoin="miter" stroke-miterlimit="10" stroke-dasharray="" stroke-dashoffset="0" font-family="none" font-weight="none" font-size="none" text-anchor="none" style="mix-blend-mode: normal"><path d="M0,256v-256h256v256z" id="bgRectangle"></path></g><g fill="#625aff" fill-rule="nonzero" stroke="none" stroke-width="1" stroke-linecap="butt" stroke-linejoin="miter" stroke-miterlimit="10" stroke-dasharray="" stroke-dashoffset="0" font-family="none" font-weight="none" font-size="none" text-anchor="none" style="mix-blend-mode: normal"><g transform="scale(10.66667,10.66667)"><path d="M19,3h-14c-1.103,0 -2,0.897 -2,2v14c0,1.103 0.897,2 2,2h14c1.103,0 2,-0.897 2,-2v-14c0,-1.103 -0.897,-2 -2,-2zM14.825,14.286c0,1.938 -1.315,2.474 -1.955,2.626c-0.284,0.05 -0.572,0.088 -0.87,0.088c-0.224,0 -0.438,-0.037 -0.655,-0.066c-0.545,-0.106 -1.77,-0.504 -2.1,-2.2c-0.094,-0.485 0.309,-0.928 0.802,-0.928h0.263c0.378,0 0.725,0.257 0.79,0.628c0.187,1.061 0.851,1.009 0.966,1.009c0.147,0 0.868,-0.027 0.868,-1.143c0,-2.229 -3.459,-1.24 -3.459,-4.581c0,-2.29 1.898,-2.647 2.237,-2.69v0c0.098,-0.006 0.19,-0.029 0.288,-0.029c0.29,0 0.569,0.038 0.845,0.085c0.421,0.103 1.542,0.502 1.889,2.056c0.115,0.515 -0.26,1.013 -0.788,1.013h-0.259c-0.402,0 -0.72,-0.299 -0.801,-0.693c-0.157,-0.758 -0.569,-0.897 -0.765,-0.897c-0.134,0 -0.755,0.035 -0.755,1.162c0,1.968 3.459,1.355 3.459,4.56z"></path></g></g></svg>